<svg width="21.562500" height="21.562500" viewBox="0 0 21.5625 21.5625" fill="none" xmlns="http://www.w3.org/2000/svg" xmlns:xlink="http://www.w3.org/1999/xlink">
	<desc>
			Created with Pixso.
	</desc>
	<defs/>
	<path id="Vector" d="M10.7812 0C4.83691 0 0 4.83643 0 10.7812C0 13.238 0.84668 15.627 2.39062 17.541L2.15723 20.7927C2.14941 20.9092 2.16992 21.0259 2.2168 21.1326C2.26465 21.2395 2.33691 21.3333 2.42773 21.4058C2.51953 21.4785 2.62695 21.5278 2.74219 21.5496C2.85645 21.5713 2.97461 21.5649 3.08594 21.5308L6.25293 20.5562C7.6875 21.2246 9.20898 21.5625 10.7812 21.5625C16.7256 21.5625 21.5625 16.7261 21.5625 10.7812C21.5625 4.83643 16.7256 0 10.7812 0ZM6.46875 12.2188C5.67578 12.2188 5.03125 11.574 5.03125 10.7812C5.03125 9.98853 5.67578 9.34375 6.46875 9.34375C7.26172 9.34375 7.90625 9.98853 7.90625 10.7812C7.90625 11.574 7.26172 12.2188 6.46875 12.2188ZM10.7812 12.2188C9.98828 12.2188 9.34375 11.574 9.34375 10.7812C9.34375 9.98853 9.98828 9.34375 10.7812 9.34375C11.5742 9.34375 12.2188 9.98853 12.2188 10.7812C12.2188 11.574 11.5742 12.2188 10.7812 12.2188ZM15.0938 12.2188C14.3008 12.2188 13.6562 11.574 13.6562 10.7812C13.6562 9.98853 14.3008 9.34375 15.0938 9.34375C15.8867 9.34375 16.5312 9.98853 16.5312 10.7812C16.5312 11.574 15.8867 12.2188 15.0938 12.2188Z" fill="#FF1F00" fill-opacity="1.000000" fill-rule="nonzero"/>
</svg>
