<svg width="15.000000" height="15.000000" viewBox="0 0 15 15" fill="none" xmlns="http://www.w3.org/2000/svg" xmlns:xlink="http://www.w3.org/1999/xlink">
	<desc>
			Created with Pixso.
	</desc>
	<defs/>
	<path id="Vector" d="M10.4004 5.53455L6.46973 9.46545L4.59863 7.59424" stroke="#64C279" stroke-opacity="1.000000" stroke-width="1.000000" stroke-linejoin="round" stroke-linecap="round"/>
	<mask id="mask54_144" mask-type="alpha" maskUnits="userSpaceOnUse" x="0.000000" y="0.000000" width="15.000000" height="15.000000">
		<path id="Vector" d="M0 0L15 0L15 15L0 15L0 0Z" fill="#000000" fill-opacity="1.000000" fill-rule="nonzero"/>
		<path id="Vector" d="M15 0L0 0L0 15L15 15L15 0ZM14 14L1 14L1 1L14 1L14 14Z" fill="#000000" fill-opacity="1.000000" fill-rule="evenodd"/>
	</mask>
	<g mask="url(#mask54_144)">
		<path id="Vector" d="M7.5 14C11.0898 14 14 11.0898 14 7.5C14 3.91016 11.0898 1 7.5 1C3.91016 1 1 3.91016 1 7.5C1 11.0898 3.91016 14 7.5 14ZM6.26953 12.8629Q6.86914 13 7.5 13Q8.13086 13 8.73047 12.8629Q9.19434 12.7567 9.64062 12.5682Q10.0977 12.3748 10.5068 12.1072Q10.9805 11.7977 11.3887 11.389Q11.7979 10.9805 12.1074 10.5071Q12.375 10.098 12.5684 9.6405Q12.7568 9.19482 12.8633 8.73035Q13 8.13086 13 7.5Q13 6.86926 12.8633 6.26978Q12.7568 5.80518 12.5684 5.3595Q12.375 4.90198 12.1074 4.49292Q11.7979 4.01953 11.3887 3.61096Q10.9805 3.20239 10.5068 2.89282Q10.0977 2.62537 9.64062 2.43188Q9.19434 2.24329 8.73047 2.13708Q8.13086 2 7.5 2Q6.86914 2 6.26953 2.13708Q5.80469 2.24329 5.35938 2.43188Q4.90234 2.62537 4.49316 2.89282Q4.01953 3.20239 3.61133 3.61096Q3.20215 4.01953 2.89258 4.49292Q2.625 4.90198 2.43164 5.3595Q2.24316 5.8053 2.13672 6.26978Q2 6.86926 2 7.5Q2 8.13086 2.13672 8.73022Q2.24316 9.19482 2.43164 9.6405Q2.625 10.098 2.89258 10.5071Q3.20215 10.9805 3.61133 11.389Q4.01953 11.7977 4.49316 12.1073Q4.90234 12.3748 5.35938 12.5682Q5.80566 12.7567 6.26953 12.8629Z" fill="#64C279" fill-opacity="1.000000" fill-rule="evenodd"/>
	</g>
</svg>
