<svg width="17.000000" height="12.750000" viewBox="0 0 17 12.75" fill="none" xmlns="http://www.w3.org/2000/svg" xmlns:xlink="http://www.w3.org/1999/xlink">
	<desc>
			Created with Pixso.
	</desc>
	<defs/>
	<path id="Vector" d="M15.583 0L1.41699 0C0.635742 0 0 0.635254 0 1.41675L0 11.3333C0 12.1147 0.635742 12.75 1.41699 12.75L15.583 12.75C16.3643 12.75 17 12.1147 17 11.3333L17 1.41675C17 0.635254 16.3643 0 15.583 0ZM1.41699 0.708252L15.583 0.708252C15.6357 0.708252 15.6816 0.727295 15.7305 0.738037C14.5039 1.8606 10.4375 5.58105 9.01367 6.86328C8.90234 6.96362 8.72266 7.08325 8.5 7.08325C8.27734 7.08325 8.09766 6.96362 7.98535 6.86304C6.5625 5.58105 2.49512 1.86035 1.26953 0.738281C1.31836 0.727295 1.36426 0.708252 1.41699 0.708252ZM0.708008 11.3333L0.708008 1.41675C0.708008 1.34717 0.729492 1.28442 0.748047 1.22095C1.68652 2.08008 4.52441 4.67603 6.36426 6.34912C4.53027 7.92456 1.69238 10.6157 0.746094 11.5178C0.729492 11.4578 0.708008 11.3987 0.708008 11.3333ZM15.583 12.0417L1.41699 12.0417C1.36035 12.0417 1.30957 12.022 1.25684 12.0093C2.23438 11.0771 5.09082 8.37085 6.89258 6.82935C7.09863 7.01636 7.30469 7.20288 7.51172 7.38916C7.80371 7.65259 8.14551 7.79175 8.5 7.79175C8.85449 7.79175 9.19629 7.65259 9.48828 7.3894C9.69434 7.20312 9.90137 7.01636 10.1074 6.82935C11.9092 8.37061 14.7646 11.0769 15.7432 12.0093C15.6904 12.022 15.6396 12.0417 15.583 12.0417ZM16.292 11.3333C16.292 11.3987 16.2705 11.4578 16.2539 11.5178C15.3076 10.6152 12.4697 7.92456 10.6357 6.34937C12.4756 4.67603 15.3125 2.08032 16.252 1.22095C16.2705 1.28418 16.292 1.34717 16.292 1.41675L16.292 11.3333Z" fill="#FFFFFF" fill-opacity="1.000000" fill-rule="nonzero"/>
</svg>
