<svg width="17.000977" height="16.999756" viewBox="0 0 17.001 16.9998" fill="none" xmlns="http://www.w3.org/2000/svg" xmlns:xlink="http://www.w3.org/1999/xlink">
	<desc>
			Created with Pixso.
	</desc>
	<defs/>
	<path id="Vector" d="M16.6895 14.9531C16.5771 15.0657 16.4404 15.2095 16.2959 15.3618C15.9355 15.7441 15.4863 16.2192 15.2041 16.4119C13.7197 17.4258 11.7354 16.9407 10.3311 16.3557C8.47852 15.5837 6.46191 14.1611 4.65137 12.3501C2.83887 10.5391 1.41602 8.52173 0.644531 6.67041C0.0595703 5.26587 -0.426758 3.28027 0.587891 1.79614C0.780273 1.51392 1.25684 1.0647 1.63867 0.703857C1.79102 0.559814 1.93359 0.423828 2.04688 0.311279C2.24707 0.112061 2.51855 0 2.80078 0C3.08398 0 3.35547 0.112061 3.55566 0.311279L6.28613 3.04077C6.48535 3.24121 6.59668 3.51245 6.59668 3.79492C6.59668 4.07764 6.48535 4.34888 6.28613 4.54932L5.54199 5.2915C5.29395 5.53809 5.13184 5.85815 5.08008 6.20435C5.02832 6.55054 5.08984 6.90405 5.25488 7.21265C6.27734 9.14331 7.85742 10.7224 9.78809 11.7451C10.0967 11.9104 10.4502 11.9717 10.7959 11.9199C11.1416 11.8682 11.4619 11.7058 11.708 11.4575L12.4502 10.7151C12.6504 10.5156 12.9219 10.4038 13.2051 10.4038C13.4873 10.4038 13.7588 10.5156 13.959 10.7151L16.6895 13.4451C16.8887 13.6453 17.001 13.9165 17.001 14.199C17.001 14.4817 16.8887 14.7527 16.6895 14.9531Z" fill="#FF1F00" fill-opacity="1.000000" fill-rule="evenodd"/>
</svg>
