<svg width="41.852539" height="43.593750" viewBox="0 0 41.8525 43.5938" fill="none" xmlns="http://www.w3.org/2000/svg" xmlns:xlink="http://www.w3.org/1999/xlink">
	<desc>
			Created with Pixso.
	</desc>
	<defs/>
	<path id="Vector" d="M41.501 13.2998C41.3154 13.0258 41.0654 12.8015 40.7725 12.6465C40.4805 12.4915 40.1543 12.4105 39.8232 12.4106L38.79 12.4106L38.79 5.66412C38.79 4.72949 38.0293 3.96906 37.0947 3.96906L30.9043 3.96906C30.8057 3.96906 30.71 3.97925 30.6162 3.99548L30.6162 1.72308C30.6162 0.77301 29.8428 0 28.8926 0L22.5283 0C21.5781 0 20.8047 0.77301 20.8047 1.72308L20.8047 6.16907L19.5068 1.32349C19.2607 0.405884 18.3145 -0.140808 17.3965 0.105103L11.248 1.75244C10.8047 1.87128 10.4336 2.15668 10.2031 2.55597C9.97266 2.95526 9.91113 3.41937 10.0303 3.86279L12.3203 12.4106L9.82129 12.4106L8.50977 6.97455C8.12305 5.37305 6.7041 4.25452 5.05957 4.25452L2.0293 4.25452C0.910156 4.25452 0 5.16498 0 6.28412C0 7.4032 0.910156 8.31366 2.0293 8.31366L4.66602 8.31366L9.48633 28.2809C7.53613 29.2146 6.26562 31.193 6.26562 33.3863C6.26562 36.1912 8.29883 38.5272 11.002 38.9693C11.2158 41.5549 13.3877 43.5938 16.0273 43.5938C18.6416 43.5938 20.7969 41.5952 21.0469 39.046L27.0693 39.046C27.3193 41.5952 29.4746 43.5938 32.0889 43.5938C34.8701 43.5938 37.1328 41.3309 37.1328 38.5496C37.1328 35.7681 34.8701 33.5053 32.0889 33.5053C30.6973 33.5053 29.4346 34.072 28.5215 34.9868L19.5947 34.9868C18.6816 34.072 17.4189 33.5053 16.0273 33.5053C14.6357 33.5053 13.373 34.072 12.46 34.9868L11.9258 34.9868C11.043 34.9868 10.3252 34.2688 10.3252 33.3863C10.3252 32.5038 11.043 31.7858 11.9258 31.7858L32.3809 31.7858C34.9004 31.7858 37.0928 30.1657 37.8359 27.7545L41.7207 15.1609C41.9551 14.5435 41.874 13.8501 41.501 13.2998ZM30.9043 5.37531L37.0947 5.37531C37.252 5.37531 37.3838 5.50757 37.3838 5.66412L37.3838 12.4105L30.6162 12.4105L30.6162 5.66412C30.6162 5.50757 30.748 5.37531 30.9043 5.37531ZM22.2109 1.72308C22.2109 1.55133 22.3564 1.40625 22.5283 1.40625L28.8926 1.40625C29.0645 1.40625 29.21 1.55133 29.21 1.72308L29.21 12.4106L22.4775 12.4106L22.2109 11.4172L22.2109 1.72308L22.2109 1.72308ZM11.3887 3.49878C11.3594 3.38995 11.3965 3.30176 11.4209 3.25891C11.4453 3.216 11.5039 3.13989 11.6123 3.11072L17.7598 1.46338C17.9258 1.41907 18.1035 1.52155 18.1484 1.68744L21.0215 12.4105L13.7764 12.4105L11.3887 3.49878ZM32.0889 34.9116C34.0947 34.9116 35.7266 36.5435 35.7266 38.5496C35.7266 40.5555 34.0947 42.1875 32.0889 42.1875C30.083 42.1875 28.4512 40.5555 28.4512 38.5496C28.4512 36.5435 30.083 34.9116 32.0889 34.9116ZM27.5303 36.3931C27.3418 36.7892 27.207 37.2084 27.1289 37.6397L20.9883 37.6397C20.9092 37.2084 20.7744 36.7892 20.5859 36.3931L27.5303 36.3931ZM16.0273 34.9116C18.0332 34.9116 19.665 36.5435 19.665 38.5496C19.665 40.5555 18.0332 42.1875 16.0273 42.1875C14.0215 42.1875 12.3896 40.5555 12.3896 38.5496C12.3896 36.5435 14.0215 34.9116 16.0273 34.9116ZM40.4033 14.6701C40.3965 14.6874 40.3896 14.7049 40.3848 14.7227L36.4932 27.34C35.9316 29.1581 34.2793 30.3796 32.3809 30.3796L11.9258 30.3796C10.2676 30.3796 8.91895 31.7285 8.91895 33.3863C8.91895 34.894 10.0342 36.1458 11.4834 36.3603C11.2998 36.7402 11.165 37.1419 11.082 37.5557C9.12598 37.1639 7.67188 35.4424 7.67188 33.3863C7.67188 31.5759 8.8252 29.9601 10.541 29.3652C10.7061 29.308 10.8438 29.1914 10.9277 29.0381C11.0117 28.8848 11.0352 28.7057 10.9941 28.5359L5.93945 7.59552C5.83984 7.1839 5.48633 6.90735 5.05957 6.90735L2.0293 6.90735C1.68555 6.90735 1.40625 6.62775 1.40625 6.284C1.40625 5.94025 1.68555 5.66071 2.0293 5.66071L5.05957 5.66071C6.05273 5.66071 6.90918 6.33655 7.14258 7.30444L8.58496 13.2786C8.62207 13.432 8.70898 13.5684 8.83301 13.6661C8.95703 13.7637 9.11035 13.8168 9.26758 13.8168L39.8232 13.8168C40.0322 13.8168 40.2197 13.9161 40.3369 14.0893C40.4561 14.2646 40.4795 14.4763 40.4033 14.6701ZM38.0303 15.0634L9.9082 15.0634C9.80176 15.0634 9.69727 15.0875 9.60156 15.134C9.50586 15.1805 9.42188 15.248 9.35645 15.3316C9.29004 15.4152 9.24414 15.5126 9.22168 15.6165C9.19922 15.7204 9.2002 15.8281 9.22461 15.9315L12.2822 28.5947C12.3193 28.748 12.4062 28.8845 12.5303 28.9821C12.6543 29.0798 12.8076 29.1328 12.9658 29.1328L32.3809 29.1328C33.7549 29.1328 34.9043 28.2867 35.3076 26.9772L38.7021 15.9738C38.7344 15.8686 38.7412 15.7573 38.7236 15.6487C38.7051 15.5402 38.6611 15.4376 38.5957 15.3491C38.5303 15.2604 38.4453 15.1885 38.3467 15.1389C38.249 15.0892 38.1396 15.0634 38.0303 15.0634ZM29.21 23.4648L24.5312 23.4648L24.5312 20.65L29.21 20.65L29.21 23.4648ZM30.6162 20.65L35.7881 20.65L34.9199 23.4648L30.6162 23.4648L30.6162 20.65ZM11.8105 20.65L17.0391 20.65L17.0391 23.4648L12.4902 23.4648L11.8105 20.65ZM18.4453 20.65L23.125 20.65L23.125 23.4648L18.4453 23.4648L18.4453 20.65ZM18.4453 19.2437L18.4453 16.4697L23.125 16.4697L23.125 19.2437L18.4453 19.2437ZM23.125 24.871L23.125 27.7266L18.4463 27.7266L18.4463 24.871L23.125 24.871ZM24.5312 24.871L29.21 24.871L29.21 27.7266L24.5312 27.7266L24.5312 24.871ZM24.5312 19.2437L24.5312 16.4697L29.21 16.4697L29.21 19.2437L24.5312 19.2437ZM17.0391 16.4697L17.0391 19.2437L11.4717 19.2437L10.8018 16.4697L17.0391 16.4697ZM12.8301 24.871L17.0391 24.871L17.0391 27.7266L13.5195 27.7266L12.8301 24.871ZM32.3809 27.7266L30.6162 27.7266L30.6162 24.871L34.4863 24.871L33.9639 26.5627C33.7432 27.2806 33.1357 27.7266 32.3809 27.7266ZM36.2217 19.2437L30.6162 19.2437L30.6162 16.4697L37.0771 16.4697L36.2217 19.2437ZM16.0273 41.0201C17.3896 41.0201 18.498 39.9119 18.498 38.5496C18.498 37.1873 17.3896 36.0789 16.0273 36.0789C14.665 36.0789 13.5566 37.1873 13.5566 38.5496C13.5566 39.9119 14.665 41.0201 16.0273 41.0201ZM16.0273 37.4852C16.6143 37.4852 17.0918 37.9627 17.0918 38.5496C17.0918 39.1365 16.6143 39.6139 16.0273 39.6139C15.4404 39.6139 14.9629 39.1364 14.9629 38.5496C14.9629 37.9627 15.4404 37.4852 16.0273 37.4852ZM32.0889 41.0201C33.4512 41.0201 34.5596 39.9119 34.5596 38.5496C34.5596 37.1873 33.4512 36.0789 32.0889 36.0789C30.7266 36.0789 29.6182 37.1873 29.6182 38.5496C29.6182 39.9119 30.7266 41.0201 32.0889 41.0201ZM32.0889 37.4852C32.6758 37.4852 33.1533 37.9627 33.1533 38.5496C33.1533 39.1365 32.6758 39.6139 32.0889 39.6139C31.502 39.6139 31.0244 39.1364 31.0244 38.5496C31.0244 37.9627 31.502 37.4852 32.0889 37.4852Z" fill="#FF1F00" fill-opacity="1.000000" fill-rule="nonzero"/>
</svg>
