<svg width="41.250000" height="40.316040" viewBox="0 0 41.25 40.316" fill="none" xmlns="http://www.w3.org/2000/svg" xmlns:xlink="http://www.w3.org/1999/xlink">
	<desc>
			Created with Pixso.
	</desc>
	<defs/>
	<path id="Vector" d="M24.7803 40.316C23.8291 40.316 22.9795 39.6209 22.1543 38.9459C21.6494 38.5329 20.958 37.9676 20.625 37.9676C20.291 37.9676 19.5996 38.5329 19.0957 38.9459C18.1914 39.6851 17.166 40.5256 16.0361 40.2668C14.8711 40.002 14.3008 38.7767 13.7969 37.6962C13.5459 37.1557 13.165 36.3387 12.8945 36.2079C12.6084 36.0677 11.7178 36.2839 11.1279 36.4254C9.98145 36.7015 8.68164 37.0128 7.7627 36.2801C6.84082 35.5437 6.85742 34.2026 6.87305 33.02C6.87988 32.4167 6.8916 31.5054 6.69727 31.2617C6.50586 31.0217 5.61816 30.8318 5.03125 30.7062C3.86914 30.4578 2.55469 30.176 2.03906 29.1073C1.53027 28.0549 2.12305 26.8615 2.64551 25.8087C2.91699 25.2631 3.32715 24.4376 3.25488 24.1212C3.19043 23.8376 2.48438 23.2896 2.01758 22.9268C1.07227 22.1937 0 21.3612 0 20.1575C0 18.9537 1.07227 18.1216 2.01758 17.3876C2.48438 17.0253 3.19043 16.4773 3.25586 16.1932C3.32715 15.8768 2.91797 15.0513 2.64648 14.5052C2.12402 13.4525 1.53125 12.2595 2.04004 11.2062C2.55566 10.1379 3.87109 9.8562 5.03223 9.60779C5.61914 9.48212 6.50684 9.2923 6.69824 9.05273C6.89258 8.80853 6.88184 7.89685 6.87402 7.29352C6.85938 6.1109 6.84277 4.77026 7.76465 4.03387C8.68262 3.30072 9.9834 3.61292 11.1299 3.88855C11.7197 4.03009 12.6094 4.24432 12.8955 4.10651C13.167 3.97571 13.5469 3.15918 13.7988 2.61823C14.3018 1.53729 14.8711 0.312439 16.0371 0.0476074C17.165 -0.208313 18.1924 0.628845 19.0957 1.36853C19.6006 1.78149 20.292 2.3468 20.625 2.3468C20.959 2.3468 21.6504 1.78149 22.1543 1.36902C23.0596 0.628845 24.084 -0.210205 25.2139 0.0476074C26.3789 0.312439 26.9492 1.53778 27.4531 2.61871C27.7041 3.15918 28.085 3.9762 28.3555 4.10699C28.6426 4.24524 29.5322 4.03058 30.1211 3.88904C31.2686 3.6134 32.5684 3.30121 33.4873 4.0343C34.4092 4.77075 34.3926 6.11133 34.377 7.29449C34.3701 7.89777 34.3584 8.80945 34.5527 9.05273C34.7441 9.2923 35.6318 9.4826 36.2188 9.60822C37.3809 9.85669 38.6953 10.1379 39.2109 11.2067C39.7197 12.2595 39.127 13.4529 38.6045 14.5057C38.333 15.0518 37.9229 15.8768 37.9951 16.1932C38.0596 16.4773 38.7656 17.0253 39.2324 17.3876C40.1777 18.1216 41.25 18.9537 41.25 20.1575C41.25 21.3612 40.1777 22.1932 39.2324 22.9273C38.7656 23.2896 38.0596 23.8372 37.9941 24.1221C37.9229 24.4385 38.332 25.2635 38.6035 25.8096C39.126 26.8624 39.7188 28.0554 39.21 29.1087C38.6943 30.177 37.3789 30.4587 36.2178 30.7067C35.6309 30.8328 34.7432 31.0226 34.5518 31.2621C34.3574 31.5063 34.3682 32.4181 34.376 33.0214C34.3906 34.2036 34.4072 35.5442 33.4854 36.2806C32.5674 37.0137 31.2666 36.701 30.1201 36.4259C29.5303 36.2843 28.6406 36.0692 28.3545 36.2084C28.083 36.3387 27.7031 37.1557 27.4512 37.6962C26.9482 38.7776 26.3789 40.0024 25.2129 40.2673C25.0664 40.3006 24.9229 40.316 24.7803 40.316ZM12.6045 34.2903C12.9932 34.2903 13.3662 34.3531 13.71 34.5186C14.583 34.9395 15.0479 35.9384 15.4971 36.9045C15.7197 37.3826 16.1836 38.3773 16.4521 38.4382C16.7012 38.4823 17.5176 37.8134 17.9082 37.4937C18.751 36.8046 19.6221 36.0922 20.625 36.0922C21.627 36.0922 22.499 36.8051 23.3408 37.4937C23.7314 37.8134 24.5234 38.4692 24.7979 38.4382C25.0664 38.3768 25.5293 37.3826 25.752 36.9045C26.2012 35.9384 26.666 34.9404 27.5391 34.5186C28.4287 34.0897 29.5098 34.3507 30.5576 34.6024C31.0615 34.7234 32.1123 34.976 32.3145 34.8148C32.5205 34.6508 32.5068 33.5656 32.5 33.0443C32.4863 31.97 32.4727 30.8595 33.0859 30.0917C33.6953 29.3286 34.7773 29.097 35.8242 28.8729C36.3379 28.7632 37.4043 28.535 37.5205 28.2935C37.6289 28.0671 37.1523 27.1053 36.9229 26.6431C36.4424 25.6751 35.9453 24.6738 36.165 23.7064C36.3789 22.7679 37.2441 22.0957 38.0811 21.446C38.5342 21.0954 39.375 20.4429 39.375 20.1575C39.375 19.8719 38.5342 19.2195 38.082 18.8684C37.2451 18.2187 36.3789 17.547 36.166 16.6081C35.9463 15.6406 36.4434 14.6393 36.9238 13.6713C37.1533 13.2092 37.6309 12.2477 37.5215 12.0209C37.4053 11.779 36.3389 11.5512 35.8262 11.4415C34.7793 11.2175 33.6963 10.9859 33.0869 10.2232C32.4736 9.45587 32.4883 8.34497 32.502 7.27106C32.5078 6.74982 32.5215 5.66418 32.3164 5.50012C32.1143 5.33887 31.0635 5.59149 30.5586 5.71246C29.5117 5.96417 28.4297 6.22479 27.54 5.7959C26.667 5.37445 26.2021 4.37604 25.7529 3.4104C25.5303 2.93231 25.0674 1.93762 24.7979 1.87665C24.54 1.83215 23.7324 2.50153 23.3418 2.82074C22.499 3.51025 21.6279 4.22278 20.625 4.22278C19.623 4.22278 18.752 3.50977 17.9092 2.82074C17.5186 2.50104 16.7021 1.83496 16.4521 1.87622C16.1836 1.93713 15.7197 2.93182 15.498 3.40997C15.0479 4.37555 14.584 5.37402 13.7109 5.79541C12.8213 6.22388 11.7402 5.96417 10.6914 5.71198C10.1875 5.59058 9.13672 5.33838 8.93457 5.49915C8.72949 5.6637 8.74219 6.74884 8.74902 7.27008C8.7627 8.34448 8.77734 9.45544 8.16406 10.2223C7.55469 10.9854 6.47168 11.217 5.4248 11.441C4.91211 11.5507 3.8457 11.779 3.72852 12.0204C3.62012 12.2468 4.09766 13.2087 4.32617 13.6709C4.80664 14.6389 5.30469 15.6401 5.08398 16.6076C4.87109 17.546 4.00488 18.2182 3.16797 18.8679C2.71582 19.2195 1.875 19.8719 1.875 20.1575C1.875 20.4429 2.71582 21.0959 3.16797 21.4465C4.00488 22.0962 4.87109 22.7675 5.08398 23.7064C5.30371 24.6738 4.80664 25.6746 4.32617 26.6431C4.09668 27.1053 3.61914 28.0667 3.72852 28.2935C3.84473 28.5359 4.91113 28.7637 5.4248 28.8734C6.4707 29.0975 7.55371 29.329 8.16309 30.0922C8.77637 30.8595 8.76172 31.97 8.74805 33.0443C8.74219 33.5656 8.72852 34.6512 8.93359 34.8152C9.13574 34.9742 10.1865 34.7239 10.6914 34.6024C11.333 34.4478 11.9883 34.2903 12.6045 34.2903ZM14.7256 27.3828L27.8506 14.2578C27.9395 14.1713 28.0117 14.0678 28.0605 13.9534C28.1094 13.8391 28.1357 13.7161 28.1367 13.5916C28.1377 13.4671 28.1143 13.3436 28.0664 13.2285C28.0195 13.1132 27.9502 13.0085 27.8623 12.9205C27.7734 12.8325 27.6689 12.7629 27.5537 12.7158C27.4385 12.6686 27.3154 12.6449 27.1904 12.6459C27.0664 12.647 26.9434 12.6729 26.8291 12.722C26.7148 12.7712 26.6113 12.8426 26.5244 12.9321L13.3994 26.0571C13.3105 26.1436 13.2383 26.2471 13.1895 26.3615C13.1406 26.4758 13.1143 26.5988 13.1133 26.7233C13.1123 26.8478 13.1357 26.9713 13.1836 27.0865C13.2305 27.2017 13.2998 27.3063 13.3877 27.3944C13.4766 27.4824 13.5811 27.552 13.6963 27.5992C13.8115 27.6463 13.9346 27.67 14.0596 27.6689C14.1836 27.6678 14.3066 27.642 14.4209 27.5928C14.5352 27.5437 14.6387 27.4723 14.7256 27.3828ZM15.9375 18.7512C14.1289 18.7512 12.6562 17.2793 12.6562 15.47C12.6562 13.6606 14.1289 12.1887 15.9375 12.1887C17.7461 12.1887 19.2188 13.6606 19.2188 15.47C19.2188 17.2793 17.7461 18.7512 15.9375 18.7512ZM15.9375 14.0637C15.1621 14.0637 14.5312 14.6946 14.5312 15.47C14.5312 16.2452 15.1621 16.8762 15.9375 16.8762C16.7129 16.8762 17.3438 16.2452 17.3438 15.47C17.3438 14.6946 16.7129 14.0637 15.9375 14.0637ZM25.3125 28.1262C23.5039 28.1262 22.0312 26.6539 22.0312 24.845C22.0312 23.036 23.5039 21.5637 25.3125 21.5637C27.1211 21.5637 28.5938 23.036 28.5938 24.845C28.5938 26.6539 27.1211 28.1262 25.3125 28.1262ZM25.3125 23.4387C24.5371 23.4387 23.9062 24.0696 23.9062 24.845C23.9062 25.6202 24.5371 26.2512 25.3125 26.2512C26.0879 26.2512 26.7188 25.6202 26.7188 24.845C26.7188 24.0696 26.0879 23.4387 25.3125 23.4387Z" fill="#FF1F00" fill-opacity="1.000000" fill-rule="nonzero"/>
</svg>
