<svg width="41.279297" height="41.266357" viewBox="0 0 41.2793 41.2664" fill="none" xmlns="http://www.w3.org/2000/svg" xmlns:xlink="http://www.w3.org/1999/xlink">
	<desc>
			Created with Pixso.
	</desc>
	<defs/>
	<path id="Vector" d="M20.625 7.51532C13.3877 7.51532 7.5 13.4028 7.5 20.6403C7.5 27.8778 13.3877 33.7653 20.625 33.7653C27.8623 33.7653 33.75 27.8778 33.75 20.6403C33.75 13.4028 27.8623 7.51532 20.625 7.51532ZM20.625 31.8903C14.4219 31.8903 9.375 26.8438 9.375 20.6403C9.375 14.4369 14.4219 9.39032 20.625 9.39032C26.8281 9.39032 31.875 14.4369 31.875 20.6403C31.875 26.8438 26.8281 31.8903 20.625 31.8903Z" fill="#FF1F00" fill-opacity="1.000000" fill-rule="nonzero"/>
	<path id="Vector" d="M25.5869 16.2275L18.75 23.0647L15.6621 19.9775C15.4863 19.8017 15.2471 19.7029 14.999 19.7029C14.75 19.7029 14.5117 19.8017 14.3359 19.9775C14.1602 20.1533 14.0615 20.3917 14.0615 20.6403C14.0615 20.8889 14.1602 21.1273 14.3359 21.3031L18.0869 25.0531C18.2627 25.2289 18.501 25.3276 18.75 25.3276C18.998 25.3276 19.2373 25.2289 19.4131 25.0531L26.9131 17.5531C27.0889 17.3773 27.1875 17.1389 27.1875 16.8903C27.1875 16.6417 27.0889 16.4033 26.9131 16.2275C26.7373 16.0517 26.498 15.9529 26.25 15.9529C26.001 15.9529 25.7627 16.0517 25.5869 16.2275Z" fill="#FF1F00" fill-opacity="1.000000" fill-rule="nonzero"/>
	<path id="Vector" d="M39.2529 17.5906C38.8662 17.3047 38.7461 16.7394 39.002 16.3325C39.918 14.8757 41.249 11.8157 36.668 10.6935C36.2012 10.5791 35.8555 10.0963 35.9551 9.6275C36.3945 7.57062 35.7783 4.5838 31.6387 5.31128C31.167 5.3938 30.665 5.0694 30.5723 4.59784C30.2617 3.02094 28.9248 -0.173096 24.9346 2.26251C24.5234 2.51282 23.8691 2.37689 23.6758 2.01129C23.0566 0.840332 20.3428 -1.85968 17.5732 2.01129C17.2939 2.40222 16.6514 2.5025 16.3145 2.2616C14.498 0.960327 11.5625 0.63501 10.6758 4.59595C10.5732 5.05066 10.0898 5.39941 9.60938 5.30847C8.02051 5.00659 4.53516 5.10596 5.2959 9.62469C5.375 10.0981 5.05762 10.6204 4.58301 10.6916C2.7334 10.9681 -0.118164 12.4541 2.24707 16.3297C2.49707 16.7394 2.4248 17.3713 1.99609 17.5878C0.354492 18.4175 -1.52441 21.3688 1.99609 23.6938C2.39648 23.9581 2.49707 24.5272 2.24707 24.9369C-0.118164 28.8125 2.7334 30.2975 4.58301 30.575C5.05859 30.6463 5.375 31.1685 5.2959 31.6419C4.53516 36.1606 8.02051 36.26 9.61133 35.9572C10.0918 35.8654 10.5752 36.215 10.6777 36.6697C11.5645 40.6316 14.5 40.3054 16.3164 39.0041C16.6533 38.7631 17.2959 38.8635 17.5752 39.2544C20.3447 43.1263 23.0586 40.4263 23.6777 39.2544C23.8711 38.8897 24.5254 38.7529 24.9365 39.0032C28.9268 41.4388 30.2637 38.2447 30.5742 36.6678C30.667 36.1963 31.1689 35.8719 31.6406 35.9544C35.7803 36.6819 36.3955 33.695 35.9561 31.6381C35.8564 31.1694 36.2031 30.6866 36.6699 30.5722C41.252 29.45 39.9209 26.39 39.0039 24.9332C38.748 24.5262 38.8594 23.9488 39.2529 23.6769C40.4775 22.8303 43.125 20.4556 39.2529 17.5906ZM37.9141 26.9319C38.2324 27.4447 38.0361 28.1497 37.3105 28.3888C35.9805 28.8275 33.5312 29.1885 34.1846 33.0688C34.3096 33.8066 33.915 34.2482 33.0693 34.1835C31.7832 34.085 29.1348 33.5647 28.3906 37.31C28.2441 38.0497 27.5186 38.21 26.9336 37.9147C24.4102 36.6406 23.4004 36.4775 21.415 39.0125C21.0352 39.4972 20.2441 39.4766 19.8369 39.0125C18.7705 37.7966 17.5615 35.9272 14.3174 37.9156C13.7529 38.2616 13.1094 37.9944 12.8604 37.3119C12.2129 35.5344 12.0215 33.6397 8.18164 34.1863C7.58887 34.2706 6.96094 33.8694 7.06641 33.0716C7.26758 31.5453 7.5 29.0947 3.93945 28.3916C3.38965 28.2828 2.95996 27.5497 3.33496 26.9347C4.75781 24.6088 4.56055 23.1537 2.2168 21.4053C1.95215 21.2084 1.52246 20.3619 2.2373 19.85C4.52051 18.2169 4.75781 16.6578 3.33496 14.3309C2.95898 13.7159 3.38965 12.9819 3.93945 12.8741C7.5 12.171 7.26758 9.72034 7.06641 8.19409C6.96094 7.3963 7.58984 6.995 8.18164 7.07941C12.0215 7.625 12.2129 5.73126 12.8604 3.9538C13.1084 3.27032 13.7529 3.00409 14.3174 3.35004C17.5625 5.33844 18.7715 3.46906 19.8369 2.25317C20.2441 1.78906 21.0342 1.76843 21.415 2.25317C23.4004 4.78815 24.4102 4.625 26.9336 3.35095C27.5186 3.05566 28.2441 3.21594 28.3906 3.95563C29.1348 7.70099 31.7832 7.18066 33.0693 7.08221C33.916 7.01752 34.3096 7.45911 34.1846 8.1969C33.5312 12.0781 35.9805 12.4382 37.3105 12.8769C38.0361 13.116 38.2324 13.8219 37.9141 14.3338C35.8291 17.6825 38.0322 19.0138 39.0117 19.8538C39.3945 20.1819 39.6143 20.9572 39.0996 21.3585C37.9287 22.1685 35.8291 23.5831 37.9141 26.9319Z" fill="#FF1F00" fill-opacity="1.000000" fill-rule="nonzero"/>
</svg>
