<svg width="45.000000" height="35.136414" viewBox="0 0 45 35.1364" fill="none" xmlns="http://www.w3.org/2000/svg" xmlns:xlink="http://www.w3.org/1999/xlink">
	<desc>
			Created with Pixso.
	</desc>
	<defs/>
	<path id="Vector" d="M44.3408 33.8181L42.8867 33.8181L42.8867 28.8409C42.8867 28.0889 42.2744 27.4772 41.5225 27.4772L40.7725 27.4772L40.7725 12.3546C40.7725 10.7093 38.9629 9.39227 36.5459 9.18762L36.5459 8.40918C36.5459 7.26874 35.6172 6.34094 34.4775 6.34094L23.9092 6.34094C22.7686 6.34094 21.8408 7.2688 21.8408 8.40918L21.8408 12.7104C19.4238 12.915 17.6133 14.2321 17.6133 15.8774L17.6133 23.9545L14 23.9545L14 13.3409C14 13.1661 13.9307 12.9984 13.8066 12.8748C13.6836 12.7512 13.5156 12.6818 13.3408 12.6818L12.5908 12.6818L12.5908 0.65918C12.5908 0.484375 12.5215 0.316711 12.3984 0.193054C12.2744 0.069458 12.1064 0 11.9316 0L9.11328 0C8.93848 0 8.77148 0.069458 8.64746 0.193054C8.52344 0.316711 8.4541 0.484375 8.4541 0.65918L8.4541 12.6818L6.95508 12.6818L6.95508 4.88647C6.95508 4.71161 6.88477 4.54395 6.76172 4.42035C6.6377 4.29675 6.4707 4.22729 6.2959 4.22729C6.12109 4.22729 5.95312 4.29675 5.8291 4.42035C5.70605 4.54395 5.63672 4.71161 5.63672 4.88647L5.63672 12.6818L2.06836 12.6818C1.89355 12.6818 1.72559 12.7512 1.60254 12.8748C1.47852 12.9984 1.40918 13.1661 1.40918 13.3409L1.40918 33.8181L0.65918 33.8181C0.484375 33.8181 0.316406 33.8875 0.193359 34.0111C0.0693359 34.1347 0 34.3024 0 34.4772C0 34.652 0.0693359 34.8197 0.193359 34.9433C0.316406 35.067 0.484375 35.1364 0.65918 35.1364L44.3408 35.1364C44.5156 35.1364 44.6836 35.067 44.8066 34.9433C44.9307 34.8197 45 34.652 45 34.4772C45 34.3024 44.9307 34.1347 44.8066 34.0111C44.6836 33.8875 44.5156 33.8181 44.3408 33.8181ZM9.77246 1.31836L11.2725 1.31836L11.2725 2.81824L9.77246 2.81824L9.77246 1.31836ZM9.77246 4.1366L11.2725 4.1366L11.2725 12.6818L9.77246 12.6818L9.77246 4.1366ZM12.6816 33.8181L2.72754 33.8181L2.72754 14.0001L12.6816 14.0001L12.6816 33.8181ZM39.4541 12.3546L39.4541 12.6818L38.7041 12.6818C38.5293 12.6818 38.3623 12.7513 38.2383 12.8749C38.1143 12.9985 38.0449 13.1662 38.0449 13.341C38.0449 13.5158 38.1143 13.6835 38.2383 13.8071C38.3623 13.9307 38.5293 14.0002 38.7041 14.0002L39.4541 14.0002L39.4541 24.6591L32.3184 24.6591L32.3184 14.0001L35.8867 14.0001C36.0615 14.0001 36.2285 13.9307 36.3525 13.807C36.4766 13.6834 36.5459 13.5157 36.5459 13.3409C36.5459 13.1661 36.4766 12.9984 36.3525 12.8748C36.2285 12.7512 36.0615 12.6818 35.8867 12.6818L32.3184 12.6818L32.3184 12.3545C32.3184 11.3545 33.9854 10.4774 35.8867 10.4774C37.7871 10.4774 39.4541 11.3546 39.4541 12.3546ZM39.4541 25.9774L39.4541 27.4772L32.3184 27.4772L32.3184 25.9774L39.4541 25.9774ZM18.9316 15.8773C18.9316 14.8773 20.5996 14.0001 22.5 14.0001C24.4004 14.0001 26.0684 14.8773 26.0684 15.8773L26.0684 16.2045L25.3184 16.2045C25.1436 16.2045 24.9756 16.2739 24.8516 16.3975C24.7285 16.5212 24.6592 16.6888 24.6592 16.8636C24.6592 17.0385 24.7285 17.2062 24.8516 17.3298C24.9756 17.4534 25.1436 17.5228 25.3184 17.5228L26.0684 17.5228L26.0684 28.1817L18.9316 28.1817L18.9316 17.5228L22.5 17.5228C22.6748 17.5228 22.8428 17.4534 22.9658 17.3298C23.0898 17.2062 23.1592 17.0385 23.1592 16.8636C23.1592 16.6888 23.0898 16.5212 22.9658 16.3975C22.8428 16.2739 22.6748 16.2045 22.5 16.2045L18.9316 16.2045L18.9316 15.8773ZM26.0684 29.5001L26.0684 30.9998L18.9316 30.9998L18.9316 29.5001L26.0684 29.5001ZM14 25.2728L17.6133 25.2728L17.6133 26.7725L14 26.7725L14 25.2728ZM15.5 32.3637L15.5 33.8181L14 33.8181L14 28.091L17.6133 28.091L17.6133 30.9999L16.8633 30.9999C16.1113 30.9999 15.5 31.6117 15.5 32.3637ZM28.8857 33.8181L16.8184 33.8181L16.8184 32.3636C16.8184 32.3386 16.8389 32.3182 16.8633 32.3182L28.8857 32.3182L28.8857 33.8181ZM28.8857 28.8409L28.8857 30.9998L27.3867 30.9998L27.3867 15.8773C27.3867 14.2319 25.5762 12.9149 23.1592 12.7103L23.1592 8.40912C23.1592 7.99567 23.4961 7.65924 23.9092 7.65924L34.4775 7.65924C34.8906 7.65924 35.2275 7.99567 35.2275 8.40912L35.2275 9.18756C32.8096 9.39215 31 10.7092 31 12.3545L31 27.4772L30.25 27.4772C29.498 27.4772 28.8857 28.0889 28.8857 28.8409ZM41.5684 33.8181L30.2041 33.8181L30.2041 28.8409C30.2041 28.8159 30.2246 28.7955 30.25 28.7955L41.5225 28.7955C41.5479 28.7955 41.5684 28.8159 41.5684 28.8409L41.5684 33.8181Z" fill="#FF1F00" fill-opacity="1.000000" fill-rule="nonzero"/>
	<path id="Vector" d="M10.5234 23.9544L4.88672 23.9544C4.71191 23.9544 4.54395 24.0239 4.4209 24.1475C4.29688 24.2711 4.22754 24.4388 4.22754 24.6136L4.22754 30.9545C4.22754 31.1293 4.29688 31.297 4.4209 31.4207C4.54395 31.5443 4.71191 31.6137 4.88672 31.6137L10.5234 31.6137C10.6982 31.6137 10.8652 31.5443 10.9893 31.4207C11.1123 31.297 11.1826 31.1293 11.1826 30.9545L11.1826 24.6136C11.1826 24.4388 11.1123 24.2711 10.9893 24.1475C10.8652 24.0239 10.6982 23.9544 10.5234 23.9544ZM7.0459 30.2953L5.5459 30.2953L5.5459 25.2728L7.0459 25.2728L7.0459 30.2953ZM8.36426 30.2953L8.36426 25.2728L9.86426 25.2728L9.86426 30.2953L8.36426 30.2953ZM10.5234 16.909L4.88672 16.909C4.71191 16.909 4.54395 16.9785 4.4209 17.1021C4.29688 17.2257 4.22754 17.3934 4.22754 17.5682L4.22754 21.7955C4.22754 21.9703 4.29688 22.1379 4.4209 22.2615C4.54395 22.3852 4.71191 22.4547 4.88672 22.4547L10.5234 22.4547C10.6982 22.4547 10.8652 22.3852 10.9893 22.2615C11.1123 22.1379 11.1826 21.9703 11.1826 21.7955L11.1826 17.5682C11.1826 17.3934 11.1123 17.2257 10.9893 17.1021C10.8652 16.9785 10.6982 16.909 10.5234 16.909ZM7.0459 21.1363L5.5459 21.1363L5.5459 18.2274L7.0459 18.2274L7.0459 21.1363ZM8.36426 21.1363L8.36426 18.2274L9.86426 18.2274L9.86426 21.1363L8.36426 21.1363Z" fill="#FF1F00" fill-opacity="1.000000" fill-rule="nonzero"/>
</svg>
