<svg width="16.000000" height="14.643430" viewBox="0 0 16 14.6434" fill="none" xmlns="http://www.w3.org/2000/svg" xmlns:xlink="http://www.w3.org/1999/xlink">
	<desc>
			Created with Pixso.
	</desc>
	<defs/>
	<path id="Vector" d="M12.668 10.6534C11.5684 10.6534 10.6738 11.5484 10.6738 12.6484C10.6738 13.7485 11.5684 14.6434 12.668 14.6434C13.7686 14.6434 14.6631 13.7485 14.6631 12.6484C14.6631 11.5484 13.7686 10.6534 12.668 10.6534ZM12.668 13.4464C12.2285 13.4464 11.8701 13.0885 11.8701 12.6484C11.8701 12.2083 12.2285 11.8504 12.668 11.8504C13.1084 11.8504 13.4668 12.2083 13.4668 12.6484C13.4668 13.0885 13.1084 13.4464 12.668 13.4464ZM15.873 2.94283C15.8164 2.87127 15.7451 2.8134 15.6641 2.77361C15.582 2.73382 15.4922 2.71316 15.4014 2.7132L3.69434 2.7132L3.15527 0.45944C3.12402 0.328587 3.0498 0.212091 2.94434 0.12874C2.83887 0.0453873 2.70801 3.62396e-05 2.57324 0L0.598633 0C0.267578 -3.05176e-05 0 0.267908 0 0.598473C0 0.929037 0.267578 1.19698 0.598633 1.19698L2.10156 1.19698L4.0459 9.33587C4.07715 9.46674 4.15234 9.58326 4.25781 9.66661C4.36328 9.74997 4.49414 9.79531 4.62891 9.79531L13.9453 9.79531C14.2207 9.79531 14.46 9.60777 14.5264 9.34084L15.9824 3.45552C16.0039 3.36733 16.0059 3.27536 15.9863 3.18654C15.9678 3.09773 15.9287 3.01439 15.873 2.94283ZM13.4766 8.59833L5.10059 8.59833L3.98047 3.91021L14.6367 3.91021L13.4766 8.59833ZM5.42676 10.6534C4.32617 10.6534 3.43164 11.5484 3.43164 12.6484C3.43164 13.7485 4.32617 14.6434 5.42676 14.6434C6.52637 14.6434 7.42188 13.7485 7.42188 12.6484C7.42188 11.5484 6.52637 10.6534 5.42676 10.6534ZM5.42676 13.4464C4.98633 13.4464 4.62891 13.0885 4.62891 12.6484C4.62891 12.2083 4.98633 11.8504 5.42676 11.8504C5.86621 11.8504 6.22461 12.2083 6.22461 12.6484C6.22461 13.0885 5.86621 13.4464 5.42676 13.4464Z" fill="#FFFFFF" fill-opacity="1.000000" fill-rule="nonzero"/>
</svg>
