<svg width="17.284180" height="21.123779" viewBox="0 0 17.2842 21.1238" fill="none" xmlns="http://www.w3.org/2000/svg" xmlns:xlink="http://www.w3.org/1999/xlink">
	<desc>
			Created with Pixso.
	</desc>
	<defs/>
	<path id="Vector" d="M8.64551 0C6.35449 0.00287628 4.15723 0.9142 2.53711 2.53419C0.916016 4.1542 0.00390625 6.3507 0 8.6422C0 11.9491 2.08984 14.9627 4.08203 17.2011C6.07422 19.4395 8.06641 20.9318 8.06641 20.9318C8.23242 21.0564 8.43457 21.1238 8.64258 21.1238C8.84961 21.1238 9.05176 21.0564 9.21777 20.9318C9.21777 20.9318 11.21 19.4395 13.2021 17.2011C15.1943 14.9627 17.2842 11.9491 17.2842 8.6422C17.2822 6.35074 16.3711 4.15367 14.751 2.53336C13.1309 0.913048 10.9375 0.00191498 8.64551 0ZM8.64258 4.80283C9.66016 4.80283 10.6367 5.20734 11.3574 5.92736C12.0771 6.64738 12.4814 7.62394 12.4814 8.6422C12.4814 9.66047 12.0771 10.637 11.3574 11.357C10.6367 12.0771 9.66016 12.4816 8.64258 12.4816C7.62402 12.4816 6.64746 12.0771 5.92773 11.357C5.20703 10.637 4.80273 9.66047 4.80273 8.6422C4.80273 7.62394 5.20703 6.64738 5.92773 5.92736C6.64746 5.20734 7.62402 4.80283 8.64258 4.80283Z" fill="#FF1F00" fill-opacity="1.000000" fill-rule="evenodd"/>
</svg>
