<svg width="204.000000" height="52.000000" viewBox="0 0 204 52" fill="none" xmlns="http://www.w3.org/2000/svg" xmlns:xlink="http://www.w3.org/1999/xlink">
	<desc>
			Created with Pixso.
	</desc>
	<defs>
		<clipPath id="clip54_46">
			<rect id="Арморум Синий лого 1" width="119.000000" height="48.000000" transform="translate(42.000000 0.000000)" fill="white" fill-opacity="0"/>
		</clipPath>
	</defs>
	<rect id="Rectangle 30" rx="8.000000" width="204.000000" height="52.000000" fill="#D9D9D9" fill-opacity="0"/>
	<rect id="Арморум Синий лого 1" width="119.000000" height="48.000000" transform="translate(42.000000 0.000000)" fill="#FFFFFF" fill-opacity="0"/>
	<g clip-path="url(#clip54_46)">
		<path id="Vector" d="M77.6289 28.5074C79.1572 26.3494 80.5654 24.3528 81.9785 22.3627C86.5771 15.9008 91.1777 9.44177 95.7832 2.98558C97.6318 0.401962 100.516 -0.58197 103.45 0.342392C104.745 0.750031 105.675 1.67296 106.6 2.58584C106.843 2.83459 107.064 3.10221 107.263 3.38604C108.811 5.52111 110.354 7.66122 111.938 9.85586C111.269 10.0532 110.667 9.96278 110.075 9.96424C107.51 9.97068 104.943 9.98431 102.377 9.95562C101.77 9.94915 101.401 10.1149 101.05 10.6273C97.0771 16.3687 93.0713 22.0951 89.0811 27.8293C88.8232 28.1981 88.6172 28.524 88.0566 28.5204C84.6592 28.4967 81.2598 28.5074 77.6289 28.5074Z" fill="#1F3680" fill-opacity="1.000000" fill-rule="nonzero"/>
		<path id="Vector" d="M102.319 11.751C105.768 11.751 108.995 11.751 112.222 11.751C112.545 11.751 112.825 11.751 113.051 12.046C114.135 13.4599 115.246 14.8567 116.361 16.2753C116.112 16.5053 115.846 16.4078 115.616 16.4078C112.646 16.4178 109.674 16.4019 106.703 16.4284C106.16 16.4337 105.832 16.2766 105.534 15.8828C104.515 14.5378 103.463 13.2153 102.319 11.751Z" fill="#555555" fill-opacity="1.000000" fill-rule="nonzero"/>
		<path id="Vector" d="M107 17.9157C110.496 17.9157 113.79 17.9157 117.083 17.9117C117.362 17.9117 117.549 17.9783 117.72 18.199C118.775 19.572 119.853 20.933 120.925 22.3053C120.65 22.5661 120.348 22.4487 120.089 22.4494C117.176 22.4614 114.262 22.4387 111.349 22.4727C110.722 22.48 110.365 22.288 110.024 21.8312C109.085 20.5602 108.094 19.3219 107 17.9157Z" fill="#555555" fill-opacity="1.000000" fill-rule="nonzero"/>
		<path id="Vector" d="M97.5811 17.9157C101.077 17.9157 104.37 17.9157 107.664 17.9117C107.942 17.9117 108.13 17.9783 108.301 18.199C109.356 19.572 110.434 20.933 111.506 22.3053C111.231 22.5661 110.929 22.4487 110.67 22.4494C107.757 22.4614 104.843 22.4387 101.93 22.4727C101.303 22.48 100.946 22.288 100.605 21.8312C99.666 20.5602 98.6748 19.3219 97.5811 17.9157Z" fill="#555555" fill-opacity="1.000000" fill-rule="nonzero"/>
		<path id="Vector" d="M111.446 23.9623C114.942 23.9623 118.235 23.9623 121.529 23.9583C121.808 23.9583 121.995 24.0249 122.165 24.2457C123.222 25.6186 124.299 26.9796 125.371 28.3519C125.097 28.6127 124.794 28.4953 124.535 28.496C121.622 28.508 118.708 28.4853 115.795 28.5193C115.168 28.5266 114.812 28.3346 114.471 27.8778C113.531 26.6069 112.54 25.3686 111.446 23.9623Z" fill="#555555" fill-opacity="1.000000" fill-rule="nonzero"/>
		<path id="Vector" d="M57.4434 42.4619C57.4434 44.3485 55.9912 45.2922 53.0889 45.2922L47.8936 45.2922C47.3896 45.2922 46.8408 45.2236 46.248 45.0866C44.3213 44.6445 43.3584 43.8038 43.3584 42.5645L43.3584 41.3596C43.3584 40.3819 43.8818 39.6438 44.9277 39.1457C45.7246 38.7659 46.6885 38.576 47.8174 38.576L55.3379 38.576C55.2295 37.9346 54.3936 37.6139 52.8311 37.6139L51.2236 37.6139C50.7002 37.6139 50.4385 37.3586 50.4385 36.848L50.4385 36.6424C50.4385 36.1256 50.7002 35.8671 51.2236 35.8671L52.3906 35.8671C55.7588 35.8671 57.4434 36.8323 57.4434 38.7628L57.4434 42.4619ZM55.3184 42.5645L55.3184 40.3228L47.7695 40.3228C47.3672 40.3228 46.9307 40.3944 46.459 40.5374C45.8076 40.7367 45.4824 41.0077 45.4824 41.3503L45.4824 42.5457C45.4824 42.9381 45.8623 43.2153 46.6211 43.377C46.8828 43.4334 47.2881 43.4925 47.8359 43.5548L53.1084 43.5548C54.582 43.5548 55.3184 43.2247 55.3184 42.5645ZM73.3066 42.2936C73.3066 44.2428 71.7764 45.2174 68.7139 45.2174L62.083 45.2174L62.083 47.1322C62.083 47.6428 61.8223 47.8984 61.2988 47.8984L60.7441 47.8984C60.2207 47.8984 59.959 47.6428 59.959 47.1322L59.959 38.6692C59.959 37.5235 60.5107 36.7325 61.6143 36.2967C62.3418 36.0101 63.4072 35.8671 64.8105 35.8671L68.1973 35.8671C71.6035 35.8671 73.3066 36.7916 73.3066 38.6414L73.3066 42.2936ZM71.1543 42.3217L71.1543 38.6692C71.1543 38.1711 70.7588 37.8473 69.9678 37.6977C69.6357 37.6355 69.0527 37.6045 68.2168 37.6045L64.9062 37.6045C63.0244 37.6045 62.083 37.975 62.083 38.7162L62.083 43.4894L68.7139 43.4894C70.3408 43.4894 71.1543 43.1002 71.1543 42.3217ZM78.6367 36.5117C78.2598 36.0817 77.7949 35.8671 77.2393 35.8671L77 35.8671C76.7324 35.8671 76.4834 35.976 76.2539 36.1941C76.0312 36.4118 75.9189 36.6518 75.9189 36.913L75.9189 44.5169C75.9189 45.0337 76.1836 45.2922 76.7129 45.2922L77.2393 45.2922C77.7695 45.2922 78.0342 45.0337 78.0342 44.5169L78.0342 39.1645L82.9326 44.601C83.3477 45.0616 83.7559 45.2922 84.1572 45.2922C84.5596 45.2922 84.9678 45.0616 85.3828 44.601L90.2812 39.1645L90.2812 44.5169C90.2812 45.0337 90.5459 45.2922 91.0752 45.2922L91.6016 45.2922C92.1309 45.2922 92.3955 45.0337 92.3955 44.5169L92.3955 37.1002C92.3955 36.7763 92.2998 36.496 92.1084 36.2595C91.9043 35.9979 91.6396 35.8671 91.3145 35.8671L91.0752 35.8671C90.5205 35.8671 90.0547 36.0817 89.6787 36.5117L84.1572 42.7889L78.6367 36.5117ZM108.174 42.3683C108.174 43.4581 107.606 44.2584 106.471 44.769C105.699 45.1179 104.694 45.2922 103.457 45.2922L99.9258 45.2922C97.6484 45.2922 96.1396 44.7409 95.4004 43.6386C95.1318 43.2403 94.998 42.8167 94.998 42.3683L94.998 38.8936C94.998 38.1277 95.3652 37.4643 96.0986 36.904C96.998 36.2125 98.2705 35.8671 99.916 35.8671L103.457 35.8671C106.602 35.8671 108.174 36.8696 108.174 38.8748L108.174 42.3683ZM106.012 42.3683L106.012 38.7346C106.012 37.9875 105.141 37.6139 103.399 37.6139L99.9453 37.6139C99.3203 37.6139 98.7559 37.6883 98.251 37.8379C97.499 38.0623 97.1221 38.4139 97.1221 38.8936L97.1221 42.3683C97.1221 42.8292 97.5049 43.1593 98.2705 43.3586C98.7676 43.4894 99.3291 43.5548 99.9551 43.5548L103.408 43.5548C103.957 43.5548 104.478 43.48 104.969 43.3304C105.664 43.1186 106.012 42.7979 106.012 42.3683ZM124.134 42.2936C124.134 44.2428 122.603 45.2174 119.541 45.2174L112.91 45.2174L112.91 47.1322C112.91 47.6428 112.648 47.8984 112.126 47.8984L111.57 47.8984C111.048 47.8984 110.786 47.6428 110.786 47.1322L110.786 38.6692C110.786 37.5235 111.338 36.7325 112.441 36.2967C113.169 36.0101 114.233 35.8671 115.637 35.8671L119.024 35.8671C122.431 35.8671 124.134 36.7916 124.134 38.6414L124.134 42.2936ZM121.98 42.3217L121.98 38.6692C121.98 38.1711 121.585 37.8473 120.795 37.6977C120.463 37.6355 119.879 37.6045 119.043 37.6045L115.732 37.6045C113.852 37.6045 112.91 37.975 112.91 38.7162L112.91 43.4894L119.541 43.4894C121.168 43.4894 121.98 43.1002 121.98 42.3217ZM140.036 45.152C140.036 46.983 138.515 47.8984 135.472 47.8984L133.76 47.8984C133.229 47.8984 132.965 47.6428 132.965 47.1322L132.965 46.8894C132.965 46.3725 133.229 46.1141 133.76 46.1141L135.491 46.1141C137.099 46.1141 137.902 45.8153 137.902 45.2174L131.559 45.2174C128.362 45.2174 126.765 44.2803 126.765 42.4059L126.765 36.6424C126.765 36.1256 127.026 35.8671 127.55 35.8671L128.104 35.8671C128.627 35.8671 128.89 36.1256 128.89 36.6424L128.89 42.4059C128.89 43.128 129.779 43.4894 131.559 43.4894L137.902 43.4894L137.902 36.6424C137.902 36.1256 138.167 35.8671 138.696 35.8671L139.252 35.8671C139.774 35.8671 140.036 36.1256 140.036 36.6424L140.036 45.152ZM145.366 36.5117C144.989 36.0817 144.523 35.8671 143.969 35.8671L143.729 35.8671C143.462 35.8671 143.213 35.976 142.983 36.1941C142.76 36.4118 142.648 36.6518 142.648 36.913L142.648 44.5169C142.648 45.0337 142.913 45.2922 143.442 45.2922L143.969 45.2922C144.498 45.2922 144.763 45.0337 144.763 44.5169L144.763 39.1645L149.662 44.601C150.076 45.0616 150.484 45.2922 150.887 45.2922C151.288 45.2922 151.696 45.0616 152.111 44.601L157.011 39.1645L157.011 44.5169C157.011 45.0337 157.275 45.2922 157.805 45.2922L158.331 45.2922C158.86 45.2922 159.125 45.0337 159.125 44.5169L159.125 37.1002C159.125 36.7763 159.029 36.496 158.838 36.2595C158.634 35.9979 158.369 35.8671 158.044 35.8671L157.805 35.8671C157.249 35.8671 156.784 36.0817 156.407 36.5117L150.887 42.7889L145.366 36.5117Z" fill="#555555" fill-opacity="1.000000" fill-rule="nonzero"/>
	</g>
</svg>
