<svg width="12.083984" height="12.083996" viewBox="0 0 12.084 12.084" fill="none" xmlns="http://www.w3.org/2000/svg" xmlns:xlink="http://www.w3.org/1999/xlink">
	<desc>
			Created with Pixso.
	</desc>
	<defs/>
	<path id="Vector" d="M11.9062 11.0522L8.64648 7.79209C9.30762 6.94761 9.66699 5.90597 9.66699 4.83343C9.66699 2.1684 7.49805 0 4.83301 0C2.16797 0 0 2.1684 0 4.83343C0 7.49846 2.16797 9.66686 4.83301 9.66686C5.90625 9.66682 6.94727 9.3078 7.79199 8.647L11.0518 11.9072C11.166 12.0204 11.3193 12.0841 11.4795 12.084C11.6396 12.0839 11.7939 12.0202 11.9072 11.9068C12.0205 11.7935 12.084 11.6398 12.084 11.4795C12.084 11.3192 12.0195 11.1655 11.9062 11.0522ZM1.20801 4.83343C1.20801 2.8342 2.83398 1.20836 4.83301 1.20836C6.83301 1.20836 8.45898 2.8342 8.45898 4.83343C8.45898 6.83266 6.83301 8.4585 4.83301 8.4585C2.83398 8.4585 1.20801 6.83266 1.20801 4.83343Z" fill="#FFFFFF" fill-opacity="1.000000" fill-rule="nonzero"/>
</svg>
